<svg xmlns="http://www.w3.org/2000/svg" xmlns:xlink="http://www.w3.org/1999/xlink" width="32" height="22" viewBox="0 0 32 22"><defs><path id="9rxha" d="M1106.5 4275.015c-.277 0-.653-.013-.96.044l13.46 10.726 13.514-10.77h-.014zm-1.5 16.5c0 .552.949 1.5 1.5 1.5h26c.552 0 .5-.948.5-1.5v-14.327l-13.345 10.677a.997.997 0 0 1-1.31 0L1105 4277.188zm27.5-18.5c1.369 0 2.182.575 2.424 1.71.068.164.09.34.068.513.005.09.008.182.008.277v16c0 1.657-.843 3.5-2.5 3.5h-26c-1.657 0-3.5-1.843-3.5-3.5v-16c0-.083.005-.164.014-.242a.998.998 0 0 1 .372-.954c.628-.866 1.92-1.304 3.114-1.304z"/></defs><g><g transform="translate(-1103 -4273)"><use fill="#008ed6" xlink:href="#9rxha"/></g></g></svg>