<svg xmlns="http://www.w3.org/2000/svg" xmlns:xlink="http://www.w3.org/1999/xlink" width="24" height="32" viewBox="0 0 24 32"><defs><path id="vauja" d="M720.125 4269.988c-5.483 0-10.115 4.673-10.115 10.205 0 5.894 5.623 12.345 9.73 17.055l.523.601a1.1 1.1 0 0 0 .133.107c.045-.032.095-.072.131-.107 6.293-7.241 9.483-13.181 9.483-17.656 0-5.08-3.056-10.205-9.885-10.205 0 0 5.483 0 0 0zm0-2c7.552 0 11.885 5.587 11.885 12.205 0 6.621-5.935 14.325-10 18.998-.017.02-.713.797-1.575.797h-.076c-.863 0-1.563-.777-1.58-.797-4.33-4.981-10.769-12.068-10.769-18.998 0-6.618 5.556-12.205 12.115-12.205zM720 4276c-2.206 0-4 1.794-4 4s1.84 4.044 4.046 4.044c2.206 0 3.954-1.838 3.954-4.044 0-2.206-1.794-4-4-4 0 0 2.205 0 0 0zm.046-1.956a6 6 0 1 1 0 12 6 6 0 0 1 0-12z"/></defs><g><g transform="translate(-708 -4268)"><use fill="#008ed6" xlink:href="#vauja"/></g></g></svg>