<svg xmlns="http://www.w3.org/2000/svg" xmlns:xlink="http://www.w3.org/1999/xlink" width="18" height="32" viewBox="0 0 18 32"><defs><path id="bk83a" d="M1176.003 912h-12.009a1 1 0 0 0-1 1v26a1 1 0 0 0 1 1h12.009a1 1 0 0 0 1-1v-26a1 1 0 0 0-1-1zm0-2a3 3 0 0 1 3 3v26a3 3 0 0 1-3 3h-12.009a3 3 0 0 1-3-3v-26a3 3 0 0 1 3-3zM1170 935.005a1.995 1.995 0 1 1 0 3.99 1.995 1.995 0 0 1 0-3.99zM1168 913h4a1 1 0 0 1 0 2h-4a1 1 0 1 1 0-2z"/></defs><g><g transform="translate(-1161 -910)"><use fill="#008ed6" xlink:href="#bk83a"/></g></g></svg>