<svg xmlns="http://www.w3.org/2000/svg" xmlns:xlink="http://www.w3.org/1999/xlink" width="16" height="15" viewBox="0 0 16 15"><defs><path id="x7mka" d="M746.955 1714.154a.5.5 0 0 1-.262-.926 7.011 7.011 0 0 0 2.148-2.058l-.499-.288a.5.5 0 1 1 .5-.866l.496.286c.373-.78.602-1.632.665-2.521h-.55a.5.5 0 1 1 0-1h.551a6.938 6.938 0 0 0-.69-2.57l-.471.273a.5.5 0 0 1-.5-.866l.469-.271a7.048 7.048 0 0 0-1.858-1.857l-.27.468a.5.5 0 0 1-.866-.5l.271-.47a6.939 6.939 0 0 0-2.569-.688v.626a.5.5 0 1 1-1 0v-.624c-.895.065-1.744.299-2.515.67l.28.486a.5.5 0 1 1-.866.5l-.282-.488a7.048 7.048 0 0 0-1.875 1.86l.498.287a.5.5 0 0 1-.5.866l-.503-.29a6.938 6.938 0 0 0-.698 2.572h.557a.5.5 0 1 1 0 1h-.558c.062.901.295 1.765.676 2.555l.526-.304a.5.5 0 1 1 .5.866l-.527.304a7.013 7.013 0 0 0 2.088 2.012.5.5 0 1 1-.531.847 7.95 7.95 0 0 1-3.749-6.772c0-4.406 3.584-7.99 7.99-7.99 4.406 0 7.99 3.584 7.99 7.99a7.944 7.944 0 0 1-3.804 6.807.498.498 0 0 1-.262.074zm-3.94-7.87c.18 0 .348.047.494.13l2.711-1.566a.5.5 0 1 1 .5.866l-2.707 1.563v.004a.998.998 0 1 1-.997-.997z"/></defs><g><g transform="translate(-735 -1699)"><use fill="#008ed6" xlink:href="#x7mka"/></g></g></svg>