<svg xmlns="http://www.w3.org/2000/svg" xmlns:xlink="http://www.w3.org/1999/xlink" width="11" height="17" viewBox="0 0 11 17"><defs><path id="5fwaa" d="M743.432 1670.267l4.087.013-5.564 8.037 1.129-6.522-4.087-.014 5.563-7.442zm1.048-6.925a.833.833 0 0 0-.432.167 1.003 1.003 0 0 0-.261.253l-5.603 7.416a.995.995 0 0 0-.084 1.038c.17.334.513.546.89.55l2.886.02-.908 5.347a.998.998 0 0 0 .987 1.183c.314 0 .572-.146.766-.412l5.61-8.036a.995.995 0 0 0 .085-1.038 1.006 1.006 0 0 0-.89-.55l-2.886-.004.898-4.702a1.001 1.001 0 0 0-.941-1.235h-.036c-.027 0-.054.001-.08.003z"/></defs><g><g transform="translate(-738 -1663)"><use fill="#008ed6" xlink:href="#5fwaa"/></g></g></svg>