<svg xmlns="http://www.w3.org/2000/svg" xmlns:xlink="http://www.w3.org/1999/xlink" width="16" height="16" viewBox="0 0 16 16"><defs><path id="hx09a" d="M738.017 1594.97v-1.688h-1.924c-.023.455.022 1.25.465 1.789.325.397.834.63 1.514.694a5.718 5.718 0 0 1-.055-.795zm0-3.187a.5.5 0 0 1 .5-.5h8.993a.5.5 0 0 1 .5.5v.499h2.447a.5.5 0 0 1 .49.4c.015.072.35 1.824-.624 3.017-.572.702-1.45 1.066-2.61 1.084-.642 1.895-2.262 3.294-4.204 3.5v3.48h1.545a.5.5 0 1 1 0 1.001h-4.042a.5.5 0 1 1 0-1h1.497v-3.483c-1.94-.209-3.555-1.607-4.196-3.5-1.122-.032-1.974-.396-2.534-1.082-.973-1.193-.638-2.945-.623-3.018a.5.5 0 0 1 .49-.4h2.371zm9.993 3.187c0 .272-.02.54-.056.802.719-.054 1.253-.29 1.591-.701.443-.54.487-1.334.465-1.79h-2zm-8.993-2.687v2.687c0 2.392 1.793 4.338 3.997 4.338 2.203 0 3.996-1.946 3.996-4.338v-2.687zm7.531 13.996h-7.03a.5.5 0 1 1 0-1h7.03a.5.5 0 1 1 0 1z"/></defs><g><g transform="translate(-735 -1591)"><use fill="#008ed6" xlink:href="#hx09a"/></g></g></svg>