<svg xmlns="http://www.w3.org/2000/svg" xmlns:xlink="http://www.w3.org/1999/xlink" width="10" height="17" viewBox="0 0 10 17"><defs><path id="bp18a" d="M743.035 1627.78c-1.916 0-3.523 1.56-3.523 3.475v7.052c0 1.915 1.607 3.474 3.523 3.474a3.478 3.478 0 0 0 3.474-3.474v-7.052a3.478 3.478 0 0 0-3.474-3.474s1.916 0 0 0zm0-1a4.474 4.474 0 0 1 4.474 4.475v7.052a4.474 4.474 0 0 1-4.474 4.474c-2.47 0-4.523-2.003-4.523-4.474v-7.052c0-2.47 2.052-4.474 4.523-4.474zm-.02 3.001a.5.5 0 0 1 .5.5v2.5a.5.5 0 0 1-1 0v-2.5a.5.5 0 0 1 .5-.5z"/></defs><g><g transform="translate(-738 -1626)"><use fill="#008ed6" xlink:href="#bp18a"/></g></g></svg>